<svg version="1.2" xmlns="http://www.w3.org/2000/svg" viewBox="0 0 757 261" width="757" height="261">
	<title>LOGO_Big-svg</title>
	<style>
		.s0 { fill: #ffffff } 
		.s1 { fill: #000000 } 
		.s2 { fill: #d3d3d3 } 
	</style>
	<path id="Layer" class="s0" d="m245.4 71.3c-15.4 4.2-28.4 8.2-38.5 11.6q-5.7-4.8-12.1-9.6c-19.6-14.5-38-23.7-51.8-29.6q8.9-21.8 17.7-43.6c21.1 12.2 53.9 34.5 84.7 71.2z"/>
	<path id="Layer" class="s0" d="m363.9 103.1c-10.9 22.5-22 49.1-31.6 79.4-9.2 28.7-15.3 55.3-19.5 78.9-8.2-32.4-25.2-82.5-61.6-129-5.9-7.6-15-19.1-28.4-31.9 12.9-3.9 25-7.1 36.4-9.9q2.5 3.3 4.9 6.7c28.4 39.6 41.9 77.8 48.7 103.2 6.3-16 14.1-33.4 23.8-51.8 9-17 18.3-32.2 27.3-45.6z"/>
	<g id="Layer">
		<path id="Layer" fill-rule="evenodd" class="s0" d="m510.9 171.3q-0.3 44.2-0.5 88.4-12.5 0-25 0-0.6-96.9-1.1-193.9h58.5q25.6 0.1 40.7 14.7 15.1 14.6 15.1 38.7 0 24.6-14.8 38.4-14.7 13.7-41.3 13.7c0 0-31.6 0-31.6 0zm-0.5-21.4h32.2q14.3 0 21.8-7.1 7.6-7.1 7.6-20.6 0-13.2-7.7-21.1-7.6-7.9-20.9-8.1h-33z"/>
	</g>
	<path id="Layer" class="s1" d=""/>
	<g id="Layer">
		<path id="Layer" fill-rule="evenodd" class="s2" d="m448.5 232q-21 24.4-49.5 24.4-25.8 0-40.4-16.5-14.6-16.6-14.6-36.5 0-33.5 41.3-53.9-11.5-13.7-15.5-22.5-4.1-8.8-4.1-17.1 0-17.2 12.6-28.7 12.6-11.6 30.3-11.6 17 0 28.7 10.9 11.7 10.9 11.7 27.6 0 25.8-32.8 44l31.1 41.3c1-3.5 2.4-7.5 4.6-11.6 7.5-13.8 19.5-20.8 25.5-23.7 0.1 9-1 22.1-6.4 36.5-2.6 6.9-5.7 12.7-8.6 17.5 3.1 2.2 8.9 7 12.5 15.1 6.5 14.3 1.2 27.8 0.1 30.4q-12.8-8.8-26.5-25.6zm-13.5-17.4l-38.8-50.5q-16.4 10.2-22.8 19.2-6.5 9.1-6.5 18.7 0 12.4 8.9 23.6 8.9 11.2 23.3 11.2 9.2 0 19.4-6 10.2-6.1 16.5-16.2zm-29.7-76.8q13.3-8.2 17.6-14.5 4.3-6.3 4.3-14.5 0-9.6-5.7-15.3-5.8-5.7-13.9-5.7-8.2 0-14.2 5.6-5.9 5.5-5.9 14.4 0 8.5 8.3 18.6z"/>
	</g>
	<path id="Layer" class="s2" d="m756.4 86.4c-13.9-3-33.1-6.8-56.2-10.7-89-14.9-158.7-16.5-183.3-16.9-44.6-0.5-114.4-1-203.7 15.9-15.1 2.8-34 6.4-56 11.9-11.4 2.8-23.5 6-36.4 9.9-20.5 6.1-43 13.8-67 23.6-66.6 27.2-118.2 59.5-154.2 85.3 14.1-12.9 34-29.7 59.3-47 15.1-10.4 57.9-38.5 128.1-64.8 4.2-1.6 11.6-4.3 21.9-7.7 10.1-3.4 23.1-7.4 38.5-11.6 44.6-12.1 110.1-25.8 188.8-29.8 68-3.4 124.5 1.4 163.9 6.7 61.2 8.1 113.9 21.6 156.3 35.2z"/>
</svg>