<?xml version="1.0" encoding="utf-8"?>
<!-- Generator: Adobe Illustrator 23.0.5, SVG Export Plug-In . SVG Version: 6.00 Build 0)  -->
<svg version="1.1" id="Layer_1" xmlns="http://www.w3.org/2000/svg" xmlns:xlink="http://www.w3.org/1999/xlink" x="0px"
	y="0px" viewBox="0 0 756.39 260.4" style="enable-background:new 0 0 756.39 260.4;" xml:space="preserve">
	<style type="text/css">
		.st0 {
			fill: #234183;
		}

		.st1 {
			fill: #224183;
		}

		.st2 {
			fill: #EF9822;
		}
	</style>
	<path class="st0" d="M245.42,71.34c-15.45,4.2-28.39,8.2-38.52,11.54c-3.78-3.18-7.82-6.38-12.14-9.58
	c-19.56-14.47-37.96-23.74-51.74-29.62c5.9-14.52,11.8-29.05,17.7-43.57C181.77,12.32,214.63,34.56,245.42,71.34z" />
	<path class="st0" d="M363.88,102.11c-10.86,22.53-21.95,49.08-31.62,79.43c-9.15,28.68-15.28,55.3-19.45,78.86
	c-8.22-32.44-25.24-82.46-61.61-129.02c-5.94-7.59-15.05-19.12-28.44-31.89c12.93-3.88,25.08-7.14,36.4-9.92
	c1.67,2.21,3.33,4.45,4.97,6.75c28.35,39.59,41.9,77.79,48.68,103.15c6.32-15.98,14.13-33.41,23.83-51.75
	C345.64,130.72,354.9,115.52,363.88,102.11z" />
	<g>
		<path class="st1" d="M510.88,171.28c-0.16,29.47-0.32,58.93-0.48,88.4c-8.34,0-16.68,0-25.02,0
		c-0.36-64.61-0.72-129.22-1.09-193.83h58.52c17.09,0,30.66,4.88,40.71,14.63c10.05,9.76,15.08,22.66,15.08,38.71
		c0,16.44-4.92,29.23-14.76,38.37c-9.84,9.14-23.62,13.71-41.34,13.71H510.88z M510.4,149.91h32.21c9.54,0,16.81-2.37,21.83-7.11
		c5.01-4.74,7.52-11.6,7.52-20.56c0-8.81-2.54-15.85-7.63-21.12c-5.09-5.27-12.08-7.97-20.98-8.12H510.4V149.91z" />
	</g>
	<path d="M574.11,163.6" />
	<g>
		<path class="st2" d="M448.54,231.97c-14.02,16.28-30.53,24.41-49.54,24.41c-17.19,0-30.65-5.51-40.4-16.52
		c-9.75-11.02-14.62-23.18-14.62-36.5c0-22.28,13.76-40.24,41.27-53.89c-7.64-9.08-12.8-16.56-15.49-22.43
		c-2.69-5.87-4.03-11.6-4.03-17.18c0-11.41,4.2-20.98,12.6-28.7c8.4-7.72,18.51-11.58,30.31-11.58c11.33,0,20.88,3.64,28.66,10.91
		c7.78,7.27,11.67,16.49,11.67,27.66c0,17.17-10.93,31.84-32.78,43.99l31.14,41.27c0.93-3.51,2.36-7.48,4.6-11.6
		c7.51-13.84,19.43-20.77,25.46-23.7c0.08,9.04-0.96,22.07-6.39,36.5c-2.6,6.9-5.68,12.74-8.64,17.51c3.1,2.18,8.9,6.94,12.57,15.07
		c6.44,14.3,1.2,27.79,0.11,30.42C466.49,251.75,457.66,243.2,448.54,231.97z M434.99,214.55l-38.75-50.5
		c-10.94,6.82-18.57,13.25-22.89,19.29c-4.32,6.04-6.48,12.27-6.48,18.68c0,8.22,2.97,16.07,8.91,23.54
		c5.94,7.48,13.7,11.22,23.28,11.22c6.13,0,12.6-2.01,19.4-6.02C425.27,226.75,430.78,221.34,434.99,214.55z M405.28,137.84
		c8.86-5.5,14.73-10.35,17.62-14.54c2.89-4.19,4.33-9.03,4.33-14.54c0-6.4-1.92-11.5-5.76-15.27c-3.84-3.78-8.45-5.67-13.83-5.67
		c-5.47,0-10.2,1.85-14.19,5.54c-3.99,3.69-5.98,8.49-5.98,14.4c0,5.66,2.79,11.86,8.37,18.59L405.28,137.84z" />
	</g>
	<path class="st2" d="M756.39,86.43c-13.85-2.98-33.1-6.87-56.17-10.73C611.18,60.82,541.48,59.16,516.9,58.85
	c-44.64-0.55-114.38-1.05-203.74,15.83c-15.09,2.84-33.95,6.46-56,11.89c-11.32,2.78-23.47,6.04-36.4,9.92
	c-20.5,6.15-42.91,13.84-66.92,23.64C87.22,147.32,35.6,179.57-0.39,205.4c14.13-12.91,33.96-29.65,59.24-46.97
	c15.18-10.41,57.98-38.58,128.17-64.86c4.14-1.55,11.54-4.27,21.88-7.69c10.13-3.34,23.07-7.34,38.52-11.54
	c44.61-12.1,110.07-25.79,188.79-29.79c67.95-3.45,124.5,1.4,163.91,6.64C661.33,59.33,713.96,72.77,756.39,86.43z" />
</svg>